<svg width="56" height="56" viewBox="0 0 56 56" fill="none" xmlns="http://www.w3.org/2000/svg">
<g clip-path="url(#clip0_142_13)">
<path d="M21 3.5C21 5.43594 22.5641 7 24.5 7C38.0297 7 49 17.9703 49 31.5C49 33.4359 50.5641 35 52.5 35C54.4359 35 56 33.4359 56 31.5C56 14.0984 41.9016 0 24.5 0C22.5641 0 21 1.56406 21 3.5ZM21 14C21 15.9359 22.5641 17.5 24.5 17.5C32.2328 17.5 38.5 23.7672 38.5 31.5C38.5 33.4359 40.0641 35 42 35C43.9359 35 45.5 33.4359 45.5 31.5C45.5 19.9062 36.0938 10.5 24.5 10.5C22.5641 10.5 21 12.0641 21 14ZM10.5 15.75C10.5 12.8516 8.14844 10.5 5.25 10.5C2.35156 10.5 0 12.8516 0 15.75V40.25C0 48.9453 7.05469 56 15.75 56C24.4453 56 31.5 48.9453 31.5 40.25C31.5 31.5547 24.4453 24.5 15.75 24.5H14V35H15.75C18.6484 35 21 37.3516 21 40.25C21 43.1484 18.6484 45.5 15.75 45.5C12.8516 45.5 10.5 43.1484 10.5 40.25V15.75Z" fill="white"/>
</g>
<defs>
<clipPath id="clip0_142_13">
<rect width="56" height="56" fill="white"/>
</clipPath>
</defs>
</svg>
