<svg width="56" height="56" viewBox="0 0 56 56" fill="none" xmlns="http://www.w3.org/2000/svg">
<path d="M40.0606 1.79648L33.9684 7.89961L47.6621 21.5934L53.7543 15.5012C56.1496 13.1059 56.1496 9.23398 53.7543 6.83867L48.7231 1.79648C46.3278 -0.598828 42.4559 -0.598828 40.0606 1.79648ZM31.2668 10.1418L30.2606 10.448L14.4996 15.173C12.3231 15.8293 10.595 17.4918 9.87308 19.6574L0.182453 48.5543C-0.233172 49.7902 0.0730784 51.1684 0.980891 52.098L17.7809 35.309C17.4528 34.6199 17.2668 33.8543 17.2668 33.0449C17.2668 30.1465 19.6184 27.7949 22.5168 27.7949C25.4153 27.7949 27.7668 30.1465 27.7668 33.0449C27.7668 35.9434 25.4153 38.2949 22.5168 38.2949C21.7075 38.2949 20.9418 38.109 20.2528 37.7809L3.45277 54.5809C4.39339 55.4887 5.76058 55.8059 6.99652 55.3793L35.9043 45.6887C38.059 44.9668 39.7325 43.2387 40.3887 41.0621L45.1137 25.3012L45.42 24.2949L31.2668 10.1418Z" fill="white"/>
</svg>
