<svg width="70" height="56" viewBox="0 0 70 56" fill="none" xmlns="http://www.w3.org/2000/svg">
<g clip-path="url(#clip0_142_3)">
<path d="M20.125 5.25H35.875C36.3563 5.25 36.75 5.64375 36.75 6.125V10.5H19.25V6.125C19.25 5.64375 19.6437 5.25 20.125 5.25ZM14 6.125V10.5H7C3.13906 10.5 0 13.6391 0 17.5V28H21H38.5H39.3969C42.9297 23.7234 48.2672 21 54.25 21C54.8406 21 55.4203 21.0219 56 21.0766V17.5C56 13.6391 52.8609 10.5 49 10.5H42V6.125C42 2.74531 39.2547 0 35.875 0H20.125C16.7453 0 14 2.74531 14 6.125ZM35 38.5H24.5C22.5641 38.5 21 36.9359 21 35V31.5H0V45.5C0 49.3609 3.13906 52.5 7 52.5H39.3969C36.6516 49.175 35 44.8984 35 40.25C35 39.6594 35.0219 39.0797 35.0766 38.5H35ZM70 40.25C70 36.0728 68.3406 32.0668 65.3869 29.1131C62.4332 26.1594 58.4272 24.5 54.25 24.5C50.0728 24.5 46.0668 26.1594 43.1131 29.1131C40.1594 32.0668 38.5 36.0728 38.5 40.25C38.5 44.4272 40.1594 48.4332 43.1131 51.3869C46.0668 54.3406 50.0728 56 54.25 56C58.4272 56 62.4332 54.3406 65.3869 51.3869C68.3406 48.4332 70 44.4272 70 40.25ZM54.25 31.5C55.2125 31.5 56 32.2875 56 33.25V38.5H59.5C60.4625 38.5 61.25 39.2875 61.25 40.25C61.25 41.2125 60.4625 42 59.5 42H54.25C53.2875 42 52.5 41.2125 52.5 40.25V33.25C52.5 32.2875 53.2875 31.5 54.25 31.5Z" fill="white"/>
</g>
<defs>
<clipPath id="clip0_142_3">
<rect width="70" height="56" fill="white"/>
</clipPath>
</defs>
</svg>
