<svg width="63" height="49" viewBox="0 0 63 49" fill="none" xmlns="http://www.w3.org/2000/svg">
<path d="M5.43594 0C4.2875 0 3.27031 0.754688 2.93125 1.84844L0.0984375 11.0469C0.0328125 11.2656 0 11.4953 0 11.7141C0 12.9828 1.01719 14 2.28594 14H12.5672L15.3672 0H5.43594ZM29.75 14V0H18.9328L16.1328 14H29.75ZM33.25 14H46.8672L44.0672 0H33.25V14ZM50.4328 14H60.7141C61.9719 14 63 12.9828 63 11.7141C63 11.4844 62.9672 11.2656 62.9016 11.0469L60.0688 1.84844C59.7297 0.754688 58.7125 0 57.5641 0H47.6328L50.4328 14ZM3.5 17.5L3.9375 21H3.5C1.56406 21 0 22.5641 0 24.5C0 26.4359 1.56406 28 3.5 28H4.8125L7 45.5C7 47.4359 8.56406 49 10.5 49C12.4359 49 14 47.4359 14 45.5H49C49 47.4359 50.5641 49 52.5 49C54.4359 49 56 47.4359 56 45.5L58.1875 28H59.5C61.4359 28 63 26.4359 63 24.5C63 22.5641 61.4359 21 59.5 21H59.0625L59.5 17.5H3.5Z" fill="white"/>
</svg>
